<svg width="107" height="42" viewBox="0 0 107 42" fill="none" xmlns="http://www.w3.org/2000/svg">
<path d="M79.18 42C88.7665 42 96.5378 34.2006 96.5378 24.5795C96.5378 14.9585 88.7665 7.15909 79.18 7.15909C69.5936 7.15909 61.8223 14.9585 61.8223 24.5795C61.8223 34.2006 69.5936 42 79.18 42Z" fill="#898989" fill-opacity="0.65"/>
<path d="M7.25037 26.2621L7.89774 26.7534L7.73986 27.0862C7.35038 27.868 6.83454 28.4913 6.19245 28.9561C5.56086 29.4104 4.86607 29.6375 4.10817 29.6375C3.88711 29.6375 3.65552 29.6164 3.41341 29.5741C3.18183 29.5213 2.95024 29.4473 2.71865 29.3523V41.3643L1.10808 41.5227C0.98176 39.7373 0.871231 37.8093 0.776491 35.7386C0.734385 34.8512 0.692279 33.8898 0.650174 32.8545C0.618592 31.8191 0.587015 30.731 0.555434 29.59C0.523852 28.4384 0.502799 27.2446 0.492275 26.0085C0.47122 24.762 0.460693 23.4942 0.460693 22.2053C0.460693 20.1769 0.571222 18.3862 0.792284 16.8332C1.01334 15.2802 1.30809 13.9755 1.67652 12.919C2.05548 11.8625 2.48707 11.0649 2.97129 10.5261C3.45552 9.98732 3.96606 9.7179 4.50292 9.7179C4.70292 9.7179 4.89242 9.75488 5.07137 9.82886C5.25032 9.89224 5.40293 9.99786 5.52928 10.1458C5.6661 10.2937 5.77139 10.4944 5.84505 10.7479C5.91876 11.0015 5.95557 11.3079 5.95557 11.6671C5.95557 12.5757 5.85033 13.5793 5.6398 14.678C5.42927 15.7662 5.16082 16.8702 4.8345 17.99C4.5187 19.1099 4.17132 20.2086 3.79237 21.2862C3.41341 22.3532 3.05551 23.3199 2.71865 24.1862V27.7359C2.8134 27.8627 2.92392 27.9736 3.05024 28.0687C3.18709 28.1638 3.3292 28.243 3.47657 28.3064C3.63447 28.3592 3.79237 28.4014 3.95027 28.4331C4.10817 28.4648 4.25028 28.4807 4.37659 28.4807C4.924 28.4807 5.42927 28.3381 5.89242 28.0528C6.35561 27.7676 6.7556 27.2816 7.09248 26.5949L7.25037 26.2621ZM2.71865 22.1419C2.98182 21.3918 3.22919 20.61 3.46078 19.7966C3.69236 18.9831 3.89763 18.1643 4.07659 17.3403C4.25554 16.5057 4.39765 15.6764 4.50292 14.8523C4.60818 14.0283 4.66081 13.2359 4.66081 12.4753C4.66081 11.9893 4.61344 11.5984 4.5187 11.3026C4.42396 11.0068 4.24501 10.8589 3.98185 10.8589C3.75026 10.8589 3.55025 11.0966 3.38183 11.572C3.22393 12.0474 3.09235 12.6918 2.98708 13.5053C2.89234 14.3083 2.82392 15.2538 2.78181 16.3419C2.73971 17.4195 2.71865 18.5658 2.71865 19.7807V22.1419ZM16.8191 29.479C16.8191 30.0812 16.8717 30.5883 16.977 31.0003C17.0822 31.4124 17.2664 31.6184 17.5296 31.6184C17.6875 31.6184 17.8559 31.5444 18.0349 31.3965C18.2244 31.2381 18.4401 30.9845 18.6823 30.6359C18.9244 30.2873 19.1981 29.8382 19.5033 29.2889C19.8192 28.729 20.1771 28.0476 20.577 27.2446L21.0507 26.2621L21.6982 26.7534L21.2245 27.7359C20.7823 28.6233 20.3665 29.421 19.977 30.1288C19.5981 30.826 19.2349 31.4177 18.8875 31.9036C18.5401 32.3896 18.198 32.7646 17.8612 33.0288C17.5349 33.2823 17.2085 33.4091 16.8822 33.4091C16.5348 33.4091 16.2401 33.314 15.998 33.1238C15.7664 32.9337 15.5716 32.6749 15.4138 32.3474C15.2559 32.0093 15.1348 31.6237 15.0506 31.1905C14.9664 30.7468 14.9085 30.2767 14.8769 29.7801C14.6243 30.2873 14.3453 30.7627 14.04 31.2064C13.7348 31.6395 13.4137 32.0198 13.0768 32.3474C12.7505 32.6749 12.4084 32.9337 12.0505 33.1238C11.6926 33.314 11.3347 33.4091 10.9768 33.4091C10.4505 33.4091 9.93992 33.2982 9.44515 33.0763C8.95043 32.8545 8.50831 32.5164 8.11883 32.0621C7.73986 31.6078 7.4346 31.0373 7.203 30.3506C6.97141 29.6534 6.85561 28.8346 6.85561 27.8943C6.85561 26.7956 6.9977 25.792 7.28194 24.8834C7.56618 23.9643 7.95038 23.1772 8.43459 22.5223C8.91885 21.8567 9.47673 21.3443 10.1084 20.9851C10.7399 20.6153 11.4031 20.4304 12.0979 20.4304C12.519 20.4304 12.9084 20.5255 13.2663 20.7157C13.6242 20.9058 13.9348 21.1383 14.1979 21.4129C14.4716 21.6771 14.6979 21.9623 14.8769 22.2687C15.0558 22.5645 15.1769 22.818 15.2401 23.0294L15.4295 21.4922C15.4506 21.2915 15.5453 21.1224 15.7138 20.9851C15.8927 20.8478 16.0875 20.7421 16.298 20.6682C16.5085 20.5836 16.7138 20.5255 16.9138 20.4939C17.1138 20.4516 17.2559 20.4304 17.3401 20.4304C17.4664 20.4304 17.5507 20.4516 17.5927 20.4939C17.6349 20.5361 17.6559 20.6206 17.6559 20.7474C17.6559 20.9058 17.6085 21.2281 17.5138 21.7141C17.4296 22.1895 17.3349 22.8022 17.2296 23.5523C17.1348 24.2918 17.0401 25.1634 16.9454 26.167C16.8612 27.1707 16.8191 28.2747 16.8191 29.479ZM15.0821 25.2955C15.0821 24.8095 15.0085 24.3341 14.8611 23.8692C14.7137 23.3938 14.5137 22.9765 14.2611 22.6173C14.0084 22.2475 13.7137 21.9517 13.3769 21.7299C13.0505 21.5081 12.7031 21.3971 12.3347 21.3971C11.8821 21.3971 11.4558 21.5292 11.0557 21.7933C10.6662 22.0469 10.3241 22.4113 10.0294 22.8867C9.74518 23.3516 9.51886 23.9168 9.35042 24.5824C9.18198 25.2374 9.0978 25.961 9.0978 26.7534C9.0978 28.3381 9.34514 29.5477 9.83991 30.3823C10.3347 31.2064 10.9926 31.6184 11.8137 31.6184C12.1716 31.6184 12.54 31.4758 12.9189 31.1905C13.3084 30.8947 13.6611 30.4774 13.9769 29.9386C14.3032 29.3893 14.5664 28.7237 14.7664 27.9419C14.9769 27.1601 15.0821 26.278 15.0821 25.2955ZM30.2721 27.8943C30.2721 28.6127 30.1615 29.3047 29.9405 29.9703C29.73 30.6253 29.4142 31.2116 28.9931 31.7293C28.5826 32.2364 28.0668 32.6432 27.4457 32.9495C26.8351 33.2559 26.1351 33.4091 25.3456 33.4091C24.7772 33.4091 24.2666 33.3193 23.814 33.1397C23.3719 32.9495 22.9929 32.7013 22.6771 32.3949C22.3613 32.0779 22.1192 31.724 21.9508 31.3331C21.7823 30.9317 21.6982 30.5197 21.6982 30.0971C21.6982 29.6745 21.7771 29.2836 21.935 28.9244C22.1034 28.5547 22.3245 28.243 22.5982 27.9894C22.8824 27.7253 23.2034 27.5193 23.5613 27.3714C23.9193 27.2235 24.2982 27.1496 24.6982 27.1496C24.9509 27.1496 25.214 27.1813 25.4877 27.2446V27.7042C25.1509 27.7042 24.8193 27.7729 24.493 27.9102C24.1771 28.0476 23.893 28.2377 23.6403 28.4807C23.3982 28.7131 23.2034 28.9984 23.0561 29.3364C22.9087 29.6639 22.835 30.0178 22.835 30.3982C22.835 31.0954 23.0719 31.6554 23.5456 32.0779C24.0298 32.49 24.6877 32.696 25.5193 32.696C25.9404 32.696 26.3246 32.6167 26.672 32.4583C27.0194 32.2892 27.3141 32.0621 27.5562 31.7769C27.8089 31.4811 27.9983 31.1324 28.1246 30.731C28.2615 30.3295 28.3299 29.8911 28.3299 29.4157C28.3299 28.9614 28.2404 28.5388 28.0615 28.1479C27.8825 27.757 27.6457 27.3872 27.351 27.0386C27.0562 26.69 26.7193 26.3625 26.3404 26.0561C25.9719 25.7497 25.593 25.4592 25.2035 25.1845C24.8246 24.8993 24.4509 24.6246 24.0824 24.3605C23.714 24.0964 23.393 23.8322 23.1192 23.5682L21.5402 27.0862L20.8929 26.5949L22.5034 23.0611C22.114 22.6913 21.8245 22.3427 21.635 22.0152C21.456 21.6771 21.3666 21.2756 21.3666 20.8108C21.3666 20.5572 21.4087 20.3195 21.4929 20.0977C21.5876 19.8652 21.7087 19.6698 21.8561 19.5113C22.0139 19.3423 22.1929 19.2102 22.3929 19.1152C22.5929 19.0201 22.8035 18.9725 23.0245 18.9725C23.4245 18.9725 23.7245 19.0887 23.9245 19.3211C24.1246 19.543 24.2246 19.823 24.2246 20.1611C24.2246 20.3195 24.2087 20.4886 24.1771 20.6682C24.1456 20.8372 24.1035 21.0115 24.0508 21.1911C24.0088 21.3602 23.9614 21.5186 23.9087 21.6665C23.8666 21.8144 23.8298 21.9412 23.7982 22.0469C24.114 22.2898 24.493 22.5275 24.9351 22.7599C25.3772 22.9818 25.8351 23.2142 26.3088 23.4572C26.793 23.7002 27.272 23.9643 27.7457 24.2496C28.2194 24.5348 28.6405 24.8517 29.0089 25.2004C29.3879 25.549 29.6931 25.9452 29.9247 26.3889C30.1563 26.8326 30.2721 27.3344 30.2721 27.8943ZM23.0561 19.6856C22.9087 19.6856 22.7877 19.7385 22.6929 19.8441C22.6087 19.9392 22.5666 20.0712 22.5666 20.2403C22.5666 20.4304 22.6139 20.6417 22.7087 20.8741C22.8035 21.1066 22.9719 21.3337 23.214 21.5556C23.3192 21.3337 23.3982 21.1171 23.4508 20.9058C23.514 20.6945 23.5456 20.4833 23.5456 20.272C23.5456 20.1029 23.4982 19.9656 23.4035 19.8599C23.3192 19.7437 23.2034 19.6856 23.0561 19.6856ZM33.6669 27.8943C33.6669 28.412 33.6511 28.9614 33.6195 29.5424C33.588 30.113 33.5195 30.6887 33.4143 31.2698C33.3196 31.8403 33.1774 32.4002 32.988 32.9495C32.7985 33.4883 32.5406 33.9901 32.2142 34.455L31.0142 34.0905C31.2774 33.2031 31.4353 32.2734 31.4879 31.3015C31.5406 30.3295 31.5669 29.3576 31.5669 28.3856C31.5669 27.3292 31.5353 26.2727 31.4721 25.2162C31.3984 24.1597 31.3195 23.1033 31.2352 22.0469C31.1405 20.9798 31.0616 19.9075 30.9984 18.8299C30.9247 17.7523 30.8879 16.6642 30.8879 15.5654C30.8879 14.8999 30.9616 14.3188 31.1089 13.8222C31.2458 13.3257 31.43 12.9137 31.6616 12.5862C31.8932 12.2587 32.1511 12.0157 32.4353 11.8573C32.7195 11.6882 33.0037 11.6037 33.2879 11.6037C33.688 11.6037 34.0038 11.7463 34.2353 12.0316C34.4774 12.3168 34.6564 12.7024 34.7722 13.1884C34.888 13.6743 34.9459 14.2396 34.9459 14.884C34.9564 15.5285 34.9301 16.2099 34.867 16.9283C34.8038 17.6467 34.7143 18.3809 34.5985 19.131C34.4827 19.8811 34.3564 20.61 34.2196 21.3179C34.0827 22.0257 33.9459 22.686 33.8091 23.2987C33.6827 23.9115 33.5722 24.4345 33.4774 24.8676C33.4774 24.9521 33.4827 25.0419 33.4932 25.137C33.5037 25.2215 33.509 25.306 33.509 25.3905C33.7301 24.894 33.9985 24.3605 34.3143 23.79C34.6406 23.209 35.0038 22.6701 35.4038 22.1736C35.8143 21.6771 36.2564 21.265 36.7301 20.9375C37.2144 20.5995 37.7249 20.4304 38.2618 20.4304C39.0513 20.4304 39.646 20.6945 40.0461 21.2228C40.446 21.751 40.6461 22.5117 40.6461 23.5047C40.6461 24.1914 40.6092 24.8517 40.5355 25.4856C40.4618 26.1195 40.3776 26.7322 40.2829 27.3239C40.1987 27.9049 40.1197 28.4701 40.0461 29.0195C39.9723 29.5689 39.9355 30.113 39.9355 30.6517C39.9355 31.2962 40.0987 31.6184 40.425 31.6184C40.5829 31.6184 40.7829 31.4811 41.025 31.2064C41.2776 30.9211 41.5566 30.5461 41.8619 30.0812C42.1672 29.6164 42.4882 29.0829 42.8251 28.4807C43.1619 27.8785 43.4935 27.2499 43.8198 26.5949L43.9778 26.2621L44.6251 26.7534L44.4672 27.0862C44.0988 27.8151 43.7146 28.5547 43.3145 29.3047C42.9146 30.0548 42.504 30.7362 42.083 31.349C41.6619 31.9512 41.2303 32.4477 40.7882 32.8386C40.3566 33.2189 39.925 33.4091 39.4934 33.4091C39.3039 33.4091 39.1092 33.3774 38.9092 33.314C38.7197 33.2506 38.546 33.1397 38.3881 32.9812C38.2302 32.8228 38.0986 32.6115 37.9934 32.3474C37.8881 32.0727 37.8354 31.724 37.8354 31.3015C37.8354 30.8789 37.8565 30.4193 37.8986 29.9228C37.9407 29.4262 37.9881 28.9191 38.0407 28.4015C38.1039 27.8732 38.1723 27.3503 38.246 26.8326C38.3197 26.315 38.3829 25.829 38.4355 25.3747C38.4986 24.9204 38.5513 24.5137 38.5934 24.1545C38.6355 23.7847 38.6565 23.4836 38.6565 23.2512C38.6565 22.649 38.5723 22.2106 38.4039 21.9359C38.2355 21.6612 37.9828 21.5239 37.646 21.5239C37.2249 21.5239 36.8196 21.7088 36.4302 22.0785C36.0407 22.4483 35.6722 22.9131 35.3248 23.473C34.988 24.0224 34.6775 24.6193 34.3933 25.2638C34.109 25.8976 33.8564 26.484 33.6353 27.0228C33.6353 27.1813 33.6406 27.3397 33.6511 27.4982C33.6617 27.6461 33.6669 27.7781 33.6669 27.8943ZM32.6406 14.3294C32.6406 14.7625 32.6563 15.2908 32.6879 15.9141C32.7301 16.5268 32.7774 17.1924 32.8301 17.9108C32.8932 18.6292 32.9564 19.3793 33.0195 20.1611C33.0932 20.9428 33.1669 21.7141 33.2406 22.4747C33.3564 21.8831 33.4722 21.2333 33.588 20.5255C33.7038 19.8072 33.8038 19.0887 33.888 18.3703C33.9827 17.6414 34.0512 16.9335 34.0932 16.2468C34.1459 15.5601 34.1564 14.9527 34.1248 14.4245C34.1037 13.8962 34.0354 13.4737 33.9196 13.1567C33.8038 12.8292 33.6353 12.6654 33.4143 12.6654C33.2143 12.6654 33.0353 12.787 32.8774 13.0299C32.7195 13.2729 32.6406 13.706 32.6406 14.3294ZM44.783 26.4364L44.6251 26.7534L44.4672 27.0862L43.8198 26.5949L43.9778 26.2621C44.2409 25.7233 44.4567 25.1845 44.6251 24.6457C44.8041 24.0964 44.9462 23.584 45.0515 23.1086C45.1673 22.6332 45.262 22.2159 45.3357 21.8567C45.4094 21.4975 45.483 21.2386 45.5567 21.0802C45.6199 20.9534 45.7094 20.8531 45.8251 20.7791C45.9515 20.6945 46.0778 20.6259 46.2041 20.5731C46.341 20.5202 46.4673 20.4833 46.5831 20.4621C46.7094 20.441 46.7989 20.4304 46.8515 20.4304C47.0831 20.4304 47.2357 20.478 47.3094 20.5731C47.3936 20.6682 47.4357 20.8372 47.4357 21.0802C47.4357 21.1964 47.4094 21.4869 47.3568 21.9517C47.3147 22.406 47.262 22.9818 47.1989 23.6791C47.1462 24.3658 47.0936 25.1423 47.041 26.0085C46.9989 26.8643 46.9778 27.7517 46.9778 28.6709C46.9778 29.3364 47.0094 29.8647 47.0726 30.2556C47.1357 30.6359 47.2147 30.9211 47.3094 31.1113C47.4147 31.3015 47.5252 31.4229 47.6412 31.4758C47.7672 31.5286 47.8937 31.555 48.0202 31.555C48.1885 31.555 48.3778 31.4811 48.5885 31.3331C48.7991 31.1852 49.0464 30.9264 49.3303 30.5566C49.6147 30.1763 49.9409 29.6692 50.3095 29.0353C50.6781 28.3909 51.1094 27.5774 51.6044 26.5949L51.778 26.2621L52.4252 26.7534L52.2517 27.0862C51.8517 27.868 51.4518 28.6392 51.0518 29.3998C50.6624 30.1605 50.2619 30.8366 49.8515 31.4282C49.4516 32.0198 49.0464 32.5006 48.6355 32.8703C48.2251 33.2295 47.8147 33.4091 47.4041 33.4091C46.9726 33.4091 46.5989 33.3246 46.2831 33.1556C45.9778 32.9759 45.7199 32.6854 45.5094 32.284C45.3094 31.8825 45.1567 31.3543 45.0515 30.6993C44.9567 30.0337 44.9093 29.2149 44.9093 28.243C44.9093 27.9683 44.9093 27.6831 44.9093 27.3872C44.9093 27.0809 44.9199 26.7639 44.9409 26.4364H44.783ZM48.0202 17.1818C48.0202 17.5516 47.8937 17.8632 47.6412 18.1168C47.3989 18.3598 47.0936 18.4813 46.7252 18.4813C46.3673 18.4813 46.062 18.3598 45.8094 18.1168C45.5567 17.8632 45.4304 17.5516 45.4304 17.1818C45.4304 16.8226 45.5567 16.5163 45.8094 16.2627C46.062 16.0092 46.3673 15.8824 46.7252 15.8824C47.0936 15.8824 47.3989 16.0092 47.6412 16.2627C47.8937 16.5163 48.0202 16.8226 48.0202 17.1818ZM65.0099 26.7534L64.8363 27.0862C64.4782 27.8046 63.9993 28.3803 63.3992 28.8135C62.8099 29.2361 62.1679 29.5107 61.4732 29.6375C61.2834 30.1763 61.0361 30.6781 60.7308 31.143C60.436 31.5973 60.094 31.9935 59.7046 32.3315C59.3256 32.6696 58.8937 32.9337 58.4096 33.1238C57.936 33.314 57.42 33.4091 56.8622 33.4091C56.0518 33.4091 55.32 33.24 54.6675 32.902C54.0255 32.5533 53.4781 32.0885 53.0254 31.5074C52.5727 30.9158 52.2255 30.2291 51.9834 29.4473C51.7409 28.655 51.6201 27.8098 51.6201 26.9118C51.6201 26.1301 51.7095 25.4222 51.8883 24.7884C52.0676 24.1439 52.294 23.5734 52.5674 23.0769C52.8414 22.5698 53.1467 22.1313 53.4834 21.7616C53.82 21.3812 54.1515 21.0696 54.4782 20.8266C54.8044 20.5836 55.0993 20.404 55.3623 20.2878C55.6362 20.1611 55.8412 20.0977 55.9781 20.0977L56.1836 20.6523C55.7518 20.9692 55.3675 21.4129 55.0308 21.9834C54.736 22.4694 54.4678 23.1138 54.2252 23.9168C53.9936 24.7197 53.8781 25.718 53.8781 26.9118C53.8781 27.6408 53.9465 28.3486 54.0835 29.0353C54.22 29.722 54.4202 30.3295 54.6832 30.8577C54.9466 31.386 55.2676 31.8086 55.6467 32.1255C56.0361 32.4424 56.4727 32.6009 56.9573 32.6009C57.6202 32.6009 58.1676 32.3368 58.5994 31.8086C59.0412 31.2698 59.3679 30.5355 59.5781 29.6058C59.0307 29.4896 58.51 29.273 58.0149 28.9561C57.5203 28.6392 57.0833 28.2482 56.7043 27.7834C56.3253 27.308 56.02 26.7639 55.7884 26.1512C55.5677 25.5384 55.4569 24.8729 55.4569 24.1545C55.4569 23.5629 55.5306 23.0452 55.678 22.6015C55.8359 22.1472 56.0414 21.7721 56.2939 21.4763C56.5464 21.17 56.836 20.9428 57.1622 20.7949C57.4994 20.6365 57.8518 20.5572 58.2204 20.5572C58.6517 20.5572 59.094 20.684 59.5467 20.9375C59.9994 21.1806 60.4098 21.5503 60.7784 22.0469C61.1465 22.5328 61.4465 23.1455 61.6781 23.8851C61.9097 24.6246 62.0258 25.4856 62.0258 26.4681C62.0258 26.8379 62.0044 27.2024 61.9625 27.5615C61.9202 27.9208 61.8574 28.2694 61.7728 28.6075C62.2783 28.4596 62.7362 28.2219 63.1466 27.8943C63.568 27.5668 63.9151 27.1337 64.1891 26.5949L64.3626 26.2621L65.0099 26.7534ZM56.4993 24.0277C56.4993 24.651 56.5835 25.2268 56.7518 25.755C56.9307 26.2727 57.1675 26.7322 57.4623 27.1337C57.7572 27.5246 58.0991 27.8521 58.4886 28.1162C58.8781 28.3803 59.2942 28.5652 59.736 28.6709C59.7887 28.3751 59.8201 28.0686 59.8306 27.7517C59.852 27.4242 59.8625 27.0914 59.8625 26.7534C59.8625 26.0033 59.8044 25.3271 59.6889 24.725C59.5728 24.1122 59.4202 23.5946 59.2309 23.172C59.0412 22.7388 58.8205 22.406 58.5675 22.1736C58.315 21.9412 58.0572 21.825 57.7938 21.825C57.4362 21.825 57.1309 22.0204 56.8783 22.4113C56.6253 22.7916 56.4993 23.3304 56.4993 24.0277ZM106.664 26.7534L106.49 27.0862C106.132 27.8046 105.653 28.3803 105.053 28.8135C104.464 29.2361 103.821 29.5107 103.127 29.6375C102.937 30.1763 102.69 30.6781 102.385 31.143C102.09 31.5973 101.748 31.9935 101.358 32.3315C100.979 32.6696 100.548 32.9337 100.064 33.1238C99.5899 33.314 99.0739 33.4091 98.5161 33.4091C97.7057 33.4091 96.9739 33.24 96.3214 32.902C95.6794 32.5533 95.132 32.0885 94.6793 31.5074C94.2266 30.9158 93.8794 30.2291 93.6369 29.4473C93.3948 28.655 93.274 27.8098 93.274 26.9118C93.274 26.1301 93.3634 25.4222 93.5423 24.7884C93.7211 24.1439 93.9474 23.5734 94.2213 23.0769C94.4948 22.5698 94.8001 22.1313 95.1373 21.7616C95.474 21.3812 95.8054 21.0696 96.1316 20.8266C96.4584 20.5836 96.7527 20.404 97.0162 20.2878C97.2896 20.1611 97.4951 20.0977 97.632 20.0977L97.837 20.6523C97.4057 20.9692 97.0214 21.4129 96.6847 21.9834C96.3899 22.4694 96.1212 23.1138 95.8791 23.9168C95.6475 24.7197 95.532 25.718 95.532 26.9118C95.532 27.6408 95.6004 28.3486 95.7369 29.0353C95.8739 29.722 96.0741 30.3295 96.3371 30.8577C96.6005 31.386 96.9215 31.8086 97.3006 32.1255C97.69 32.4424 98.1266 32.6009 98.6107 32.6009C99.2741 32.6009 99.8215 32.3368 100.253 31.8086C100.695 31.2698 101.021 30.5355 101.232 29.6058C100.685 29.4896 100.163 29.273 99.6688 28.9561C99.1743 28.6392 98.7372 28.2482 98.3582 27.7834C97.9792 27.308 97.6739 26.7639 97.4423 26.1512C97.2216 25.5384 97.1108 24.8729 97.1108 24.1545C97.1108 23.5629 97.1845 23.0452 97.3319 22.6015C97.4898 22.1472 97.6953 21.7721 97.9478 21.4763C98.2003 21.17 98.4899 20.9428 98.8162 20.7949C99.1529 20.6365 99.5057 20.5572 99.8743 20.5572C100.306 20.5572 100.748 20.684 101.201 20.9375C101.653 21.1806 102.064 21.5503 102.432 22.0469C102.8 22.5328 103.1 23.1455 103.332 23.8851C103.564 24.6246 103.68 25.4856 103.68 26.4681C103.68 26.8379 103.658 27.2024 103.616 27.5615C103.574 27.9208 103.511 28.2694 103.427 28.6075C103.932 28.4596 104.39 28.2219 104.801 27.8943C105.221 27.5668 105.569 27.1337 105.842 26.5949L106.017 26.2621L106.664 26.7534ZM98.1528 24.0277C98.1528 24.651 98.2374 25.2268 98.4058 25.755C98.5846 26.2727 98.8214 26.7322 99.1162 27.1337C99.4111 27.5246 99.753 27.8521 100.142 28.1162C100.532 28.3803 100.948 28.5652 101.39 28.6709C101.443 28.3751 101.474 28.0686 101.484 27.7517C101.506 27.4242 101.516 27.0914 101.516 26.7534C101.516 26.0033 101.458 25.3271 101.343 24.725C101.227 24.1122 101.074 23.5946 100.885 23.172C100.695 22.7388 100.474 22.406 100.221 22.1736C99.9689 21.9412 99.7112 21.825 99.4477 21.825C99.0901 21.825 98.7848 22.0204 98.5318 22.4113C98.2793 22.7916 98.1528 23.3304 98.1528 24.0277Z" fill="black"/>
<path d="M70.4574 21.5239C70.1626 21.5239 69.8311 21.6559 69.4625 21.92C69.1049 22.1842 68.7416 22.5275 68.373 22.9501C68.005 23.3621 67.6469 23.827 67.2997 24.3446C66.9626 24.8623 66.6677 25.3747 66.4152 25.8818C66.3838 26.8115 66.3519 27.8257 66.3206 28.9244C66.2996 30.0231 66.2892 31.1958 66.2892 32.4424C66.2892 32.6009 66.2155 32.7435 66.068 32.8703C65.9311 32.9865 65.768 33.0869 65.5782 33.1714C65.3889 33.2453 65.194 33.3034 64.9942 33.3457C64.794 33.3879 64.6309 33.4091 64.5049 33.4091C64.347 33.4091 64.1996 33.3616 64.0626 33.2665C63.9257 33.1714 63.8572 32.9601 63.8572 32.6326C63.8572 32.4741 63.8729 32.2787 63.9047 32.0462C63.9361 31.8033 63.9784 31.5444 64.0312 31.2698C64.0731 30.9951 64.1259 30.7151 64.1891 30.4299C64.2414 30.134 64.2942 29.8594 64.347 29.6058V21.8567C64.347 21.6454 64.3522 21.4816 64.3627 21.3654C64.3627 21.2386 64.3784 21.1436 64.4098 21.0802C64.473 20.9323 64.5838 20.8161 64.7417 20.7315C64.8996 20.647 65.0679 20.5836 65.2467 20.5414C65.4256 20.4886 65.5996 20.4569 65.768 20.4463C65.9363 20.4357 66.068 20.4304 66.1627 20.4304C66.3415 20.4304 66.4627 20.478 66.526 20.5731C66.5997 20.6681 66.6363 20.8372 66.6363 21.0802C66.6363 21.0485 66.6102 21.3073 66.5574 21.8567C66.5151 22.406 66.4784 23.1931 66.4471 24.2179C66.7628 23.7213 67.1047 23.2459 67.4733 22.7916C67.8419 22.3374 68.2256 21.9359 68.626 21.5873C69.026 21.2386 69.4364 20.9587 69.8573 20.7474C70.2891 20.5361 70.7261 20.4304 71.1679 20.4304C71.9573 20.4304 72.5365 20.684 72.9051 21.1911C73.2732 21.6877 73.4577 22.3638 73.4577 23.2195C73.4577 23.7583 73.4206 24.3605 73.3469 25.026C73.2841 25.681 73.2052 26.3519 73.1101 27.0386C73.0259 27.7147 72.9469 28.3803 72.8732 29.0353C72.81 29.6798 72.7786 30.2714 72.7786 30.8102C72.7786 31.5074 72.9945 31.8561 73.4258 31.8561C73.5628 31.8561 73.7207 31.7874 73.8995 31.6501C74.0892 31.5022 74.3208 31.2328 74.5943 30.8419C74.8786 30.451 75.2153 29.9175 75.6048 29.2414C75.9943 28.5547 76.4575 27.6725 76.9944 26.5949L77.1523 26.2621L77.8 26.7534L77.6421 27.0862C77.0106 28.3539 76.447 29.3945 75.9525 30.208C75.4683 31.0215 75.0261 31.6659 74.6261 32.1414C74.2262 32.6167 73.8524 32.9495 73.5048 33.1397C73.1576 33.3193 72.81 33.4091 72.4628 33.4091C72.2417 33.4091 72.0206 33.3774 71.7994 33.314C71.5788 33.2506 71.3838 33.1397 71.2154 32.9812C71.0471 32.8228 70.9101 32.6115 70.805 32.3473C70.6995 32.0727 70.6472 31.724 70.6472 31.3015C70.6472 30.6676 70.689 29.9544 70.7732 29.1621C70.8574 28.3698 70.9525 27.5774 71.0576 26.7851C71.1627 25.9927 71.2573 25.2479 71.3419 24.5507C71.4261 23.8428 71.468 23.267 71.468 22.8233C71.468 22.4324 71.3838 22.1208 71.2154 21.8883C71.0471 21.6454 70.7946 21.5239 70.4574 21.5239ZM78.4629 31.9512C78.4629 31.7504 78.5 31.5603 78.5737 31.3807C78.6474 31.2011 78.7473 31.0479 78.8733 30.9211C79.0103 30.7838 79.1682 30.6781 79.3474 30.6042C79.5263 30.5302 79.7155 30.4932 79.9157 30.4932C80.1155 30.4932 80.3052 30.5302 80.484 30.6042C80.6628 30.6781 80.8155 30.7838 80.942 30.9211C81.0789 31.0479 81.184 31.2011 81.2578 31.3807C81.3315 31.5603 81.3686 31.7504 81.3686 31.9512C81.3686 32.1519 81.3315 32.3421 81.2578 32.5216C81.184 32.7012 81.0789 32.8597 80.942 32.9971C80.8155 33.1238 80.6628 33.2242 80.484 33.2982C80.3052 33.3721 80.1155 33.4091 79.9157 33.4091C79.7155 33.4091 79.5263 33.3721 79.3474 33.2982C79.1682 33.2242 79.0103 33.1238 78.8733 32.9971C78.7473 32.8597 78.6474 32.7012 78.5737 32.5216C78.5 32.3421 78.4629 32.1519 78.4629 31.9512ZM88.6631 24.3605C88.7896 24.1597 88.8947 23.9115 88.9789 23.6157C89.074 23.3199 89.1211 23.0241 89.1211 22.7283C89.1211 22.3691 89.0317 22.0574 88.8528 21.7933C88.674 21.5292 88.3526 21.3971 87.8894 21.3971C87.5845 21.3971 87.274 21.5081 86.9578 21.7299C86.642 21.9517 86.3476 22.2845 86.0737 22.7283C85.8107 23.172 85.5948 23.7319 85.4265 24.408C85.2581 25.0842 85.174 25.8765 85.174 26.7851C85.174 27.5035 85.2472 28.1585 85.3946 28.7501C85.542 29.3417 85.7579 29.8488 86.0423 30.2714C86.3262 30.694 86.6686 31.0268 87.0686 31.2698C87.479 31.5022 87.9369 31.6184 88.4424 31.6184C88.8105 31.6184 89.1843 31.5233 89.5633 31.3331C89.9528 31.143 90.3423 30.8472 90.7318 30.4457C91.1317 30.0443 91.5421 29.5266 91.9635 28.8927C92.3843 28.2482 92.8161 27.4823 93.2584 26.5949L93.4163 26.2621L94.0635 26.7534L93.9056 27.0862C93.3373 28.2166 92.7686 29.1832 92.2003 29.9861C91.6425 30.7891 91.0899 31.4441 90.5425 31.9512C89.9951 32.4583 89.4582 32.8281 88.9318 33.0604C88.4158 33.2929 87.916 33.4091 87.4319 33.4091C86.7476 33.4091 86.137 33.2665 85.6 32.9812C85.0631 32.696 84.6104 32.3104 84.2423 31.8244C83.8738 31.3278 83.5894 30.7574 83.3897 30.1129C83.1999 29.4579 83.1053 28.7712 83.1053 28.0528C83.1053 26.9118 83.2579 25.8765 83.5632 24.9468C83.879 24.0066 84.2842 23.2037 84.7788 22.5381C85.2738 21.8725 85.8316 21.3548 86.4527 20.9851C87.0738 20.6153 87.7001 20.4304 88.3316 20.4304C88.8158 20.4304 89.2214 20.4991 89.5476 20.6365C89.8739 20.7738 90.1369 20.9481 90.3371 21.1594C90.5373 21.3707 90.679 21.5978 90.7632 21.8408C90.8478 22.0838 90.8897 22.3162 90.8897 22.5381C90.8897 22.7599 90.8421 22.9924 90.7475 23.2354C90.6528 23.4678 90.5106 23.6896 90.3214 23.9009C90.1421 24.1016 89.9267 24.2865 89.6737 24.4555C89.4211 24.614 89.1372 24.7303 88.821 24.8042L88.6631 24.3605Z" fill="white"/>
</svg>
